<svg xmlns="http://www.w3.org/2000/svg" width="1200" height="630" viewBox="0 0 1200 630" role="img" aria-labelledby="title desc">
  <title id="title">Krish Mishra portfolio preview</title>
  <desc id="desc">Open Graph preview card for Krish Mishra, full-stack developer and UI engineer.</desc>
  <rect width="1200" height="630" fill="#f5f0e0"/>
  <path d="M0 0h1200v630H0z" fill="#f5f0e0"/>
  <g opacity=".22" stroke="#14201a" stroke-width="1">
    <path d="M0 70h1200M0 140h1200M0 210h1200M0 280h1200M0 350h1200M0 420h1200M0 490h1200M0 560h1200"/>
    <path d="M80 0v630M160 0v630M240 0v630M320 0v630M400 0v630M480 0v630M560 0v630M640 0v630M720 0v630M800 0v630M880 0v630M960 0v630M1040 0v630M1120 0v630"/>
  </g>
  <rect x="78" y="78" width="1044" height="474" rx="10" fill="#fbf7ea" stroke="#14201a" stroke-width="6"/>
  <rect x="99" y="99" width="1002" height="432" rx="4" fill="none" stroke="#14201a" stroke-width="2" stroke-dasharray="14 12"/>
  <text x="120" y="205" fill="#14201a" font-family="Arial, Helvetica, sans-serif" font-size="42" font-weight="700" letter-spacing="2">KRISH MISHRA</text>
  <text x="120" y="318" fill="#14201a" font-family="Arial, Helvetica, sans-serif" font-size="84" font-weight="800">Full-stack dev &amp;</text>
  <rect x="120" y="350" width="488" height="104" fill="#c9a84c"/>
  <text x="144" y="428" fill="#14201a" font-family="Arial, Helvetica, sans-serif" font-size="82" font-weight="800">UI engineer</text>
  <rect x="760" y="146" width="246" height="246" rx="8" fill="#14201a"/>
  <text x="808" y="289" fill="#e85d3a" font-family="Arial, Helvetica, sans-serif" font-size="98" font-weight="800">&lt;/&gt;</text>
  <text x="760" y="446" fill="#14201a" font-family="Arial, Helvetica, sans-serif" font-size="30" font-weight="700">React · TypeScript · APIs</text>
</svg>
